<svg width="129" height="28" viewBox="0 0 129 28" fill="none" xmlns="http://www.w3.org/2000/svg">
<path d="M0 0V22.9091C0 25.7218 2.29249 28 5.12288 28H28.1758C31.0062 28 33.2987 25.7218 33.2987 22.9091V8.90909H25.6144V0H0ZM2.56144 2.54545H23.053V22.9091C23.053 23.8382 23.3347 24.7036 23.774 25.4545H5.12288C3.59882 25.4545 2.56144 24.4236 2.56144 22.9091V2.54545ZM5.12288 5.09091V11.4545H20.4915V5.09091H5.12288ZM7.68432 7.63636H17.9301V8.90909H7.68432V7.63636ZM25.6144 11.4545H30.7373V22.9091C30.7373 24.4236 29.6999 25.4545 28.1758 25.4545C26.6518 25.4545 25.6144 24.4236 25.6144 22.9091V11.4545ZM5.12288 12.7273V15.2727H11.5265V12.7273H5.12288ZM14.0879 12.7273V15.2727H20.4915V12.7273H14.0879ZM5.12288 16.5455V19.0909H11.5265V16.5455H5.12288ZM14.0879 16.5455V19.0909H20.4915V16.5455H14.0879ZM5.12288 20.3636V22.9091H11.5265V20.3636H5.12288ZM14.0879 20.3636V22.9091H20.4915V20.3636H14.0879Z" fill="#161616"/>
<path d="M47.3466 7.8588H50.883C52.4168 7.8588 53.5739 8.08025 54.3543 8.52315C55.1347 8.96605 55.525 9.73032 55.525 10.816C55.525 11.2697 55.4437 11.6802 55.2811 12.0475C55.1239 12.4093 54.8936 12.7091 54.5901 12.9468C54.2865 13.179 53.9126 13.3356 53.4682 13.4167V13.4977C53.9288 13.5787 54.338 13.7218 54.6957 13.9271C55.0589 14.1323 55.3434 14.4267 55.5493 14.8102C55.7607 15.1937 55.8664 15.6906 55.8664 16.3009C55.8664 17.0247 55.693 17.6404 55.3461 18.1481C55.0047 18.6559 54.5142 19.0421 53.8747 19.3067C53.2405 19.5714 52.4872 19.7037 51.6146 19.7037H47.3466V7.8588ZM49.2977 12.7442H51.1675C52.0509 12.7442 52.6633 12.6011 53.0048 12.3148C53.3462 12.0285 53.517 11.61 53.517 11.059C53.517 10.4973 53.3137 10.0922 52.9072 9.84375C52.5062 9.59529 51.8667 9.47106 50.9887 9.47106H49.2977V12.7442ZM49.2977 14.316V18.0752H51.3545C52.265 18.0752 52.9045 17.8997 53.2731 17.5486C53.6416 17.1975 53.8259 16.7222 53.8259 16.1227C53.8259 15.7554 53.7419 15.4367 53.5739 15.1667C53.4113 14.8966 53.143 14.6887 52.769 14.5428C52.3951 14.3916 51.891 14.316 51.2569 14.316H49.2977Z" fill="#161616"/>
<path d="M61.7116 10.5648C62.5137 10.5648 63.202 10.7296 63.7765 11.059C64.351 11.3885 64.7927 11.8557 65.1016 12.4606C65.4105 13.0656 65.565 13.7894 65.565 14.6319V15.6528H59.5572C59.5789 16.5224 59.8119 17.1921 60.2564 17.662C60.7062 18.1319 61.3349 18.3669 62.1424 18.3669C62.7169 18.3669 63.2318 18.3129 63.687 18.2049C64.1477 18.0914 64.6219 17.9267 65.1097 17.7106V19.2581C64.6599 19.4687 64.2019 19.6227 63.7358 19.7199C63.2697 19.8171 62.7115 19.8657 62.0611 19.8657C61.1777 19.8657 60.4 19.6956 59.7279 19.3553C59.0613 19.0096 58.5383 18.4965 58.1589 17.816C57.785 17.1354 57.598 16.2901 57.598 15.2801C57.598 14.2755 57.7687 13.4221 58.1102 12.7199C58.4516 12.0177 58.9312 11.483 59.5491 11.1157C60.1669 10.7485 60.8878 10.5648 61.7116 10.5648ZM61.7116 11.9988C61.11 11.9988 60.6222 12.1933 60.2482 12.5822C59.8797 12.9711 59.6629 13.5409 59.5979 14.2917H63.6952C63.6898 13.8434 63.6139 13.4464 63.4675 13.1007C63.3266 12.755 63.1098 12.485 62.8172 12.2905C62.5299 12.0961 62.1614 11.9988 61.7116 11.9988Z" fill="#161616"/>
<path d="M73.7677 17.1435C73.7677 17.7323 73.6241 18.2292 73.3368 18.6343C73.0496 19.0394 72.6296 19.3472 72.0768 19.5579C71.5294 19.7631 70.8573 19.8657 70.0606 19.8657C69.4319 19.8657 68.89 19.8198 68.4347 19.728C67.9849 19.6416 67.5594 19.5066 67.1584 19.3229V17.6782C67.5865 17.8781 68.0662 18.0509 68.5973 18.1968C69.1339 18.3426 69.6406 18.4155 70.1175 18.4155C70.7462 18.4155 71.1988 18.3183 71.4752 18.1238C71.7516 17.924 71.8898 17.6593 71.8898 17.3299C71.8898 17.1354 71.8329 16.9626 71.7191 16.8113C71.6107 16.6547 71.4047 16.4954 71.1012 16.3333C70.8031 16.1659 70.3641 15.966 69.7842 15.7338C69.2151 15.5069 68.7355 15.2801 68.3453 15.0532C67.9551 14.8264 67.6597 14.5536 67.4592 14.235C67.2586 13.9109 67.1584 13.4977 67.1584 12.9954C67.1584 12.2014 67.4727 11.5992 68.1014 11.1887C68.7355 10.7728 69.5729 10.5648 70.6134 10.5648C71.1663 10.5648 71.6865 10.6215 72.1743 10.735C72.6675 10.843 73.1499 11.0023 73.6214 11.213L73.0198 12.647C72.6133 12.4688 72.2041 12.3229 71.7922 12.2095C71.3857 12.0907 70.9711 12.0312 70.5484 12.0312C70.0552 12.0312 69.6785 12.1069 69.4184 12.2581C69.1637 12.4093 69.0363 12.6254 69.0363 12.9062C69.0363 13.1169 69.0986 13.2951 69.2233 13.441C69.3479 13.5868 69.562 13.7326 69.8655 13.8785C70.1744 14.0243 70.6026 14.2052 71.15 14.4213C71.6865 14.6265 72.1499 14.8426 72.5401 15.0694C72.9358 15.2909 73.2393 15.5637 73.4507 15.8877C73.662 16.2118 73.7677 16.6304 73.7677 17.1435Z" fill="#161616"/>
<path d="M79.182 18.3264C79.4313 18.3264 79.6779 18.3048 79.9218 18.2616C80.1657 18.213 80.3879 18.1562 80.5884 18.0914V19.5336C80.377 19.6254 80.1033 19.7037 79.7673 19.7685C79.4313 19.8333 79.0817 19.8657 78.7186 19.8657C78.2092 19.8657 77.7512 19.782 77.3447 19.6146C76.9382 19.4417 76.6158 19.1474 76.3773 18.7315C76.1388 18.3156 76.0196 17.7404 76.0196 17.0058V12.1852H74.792V11.3345L76.109 10.662L76.735 8.7419H77.9382V10.735H80.5153V12.1852H77.9382V16.9815C77.9382 17.4352 78.052 17.7728 78.2796 17.9942C78.5072 18.2157 78.808 18.3264 79.182 18.3264Z" fill="#161616"/>
<path d="M96.8557 19.7037H94.4575L88.6367 10.2488H88.5635C88.5852 10.5675 88.6042 10.9051 88.6204 11.2616C88.6421 11.6181 88.6584 11.9853 88.6692 12.3634C88.6855 12.7415 88.699 13.125 88.7099 13.5139V19.7037H86.9376V7.8588H89.3196L95.1322 17.2488H95.1891C95.1783 16.9734 95.1647 16.6574 95.1485 16.3009C95.1322 15.9444 95.116 15.5772 95.0997 15.1991C95.0889 14.8156 95.0807 14.4456 95.0753 14.0891V7.8588H96.8557V19.7037Z" fill="#161616"/>
<path d="M103.367 10.5648C104.17 10.5648 104.858 10.7296 105.432 11.059C106.007 11.3885 106.449 11.8557 106.757 12.4606C107.066 13.0656 107.221 13.7894 107.221 14.6319V15.6528H101.213C101.235 16.5224 101.468 17.1921 101.912 17.662C102.362 18.1319 102.991 18.3669 103.798 18.3669C104.373 18.3669 104.888 18.3129 105.343 18.2049C105.804 18.0914 106.278 17.9267 106.766 17.7106V19.2581C106.316 19.4687 105.858 19.6227 105.392 19.7199C104.926 19.8171 104.367 19.8657 103.717 19.8657C102.834 19.8657 102.056 19.6956 101.384 19.3553C100.717 19.0096 100.194 18.4965 99.8148 17.816C99.4409 17.1354 99.2539 16.2901 99.2539 15.2801C99.2539 14.2755 99.4246 13.4221 99.7661 12.7199C100.108 12.0177 100.587 11.483 101.205 11.1157C101.823 10.7485 102.544 10.5648 103.367 10.5648ZM103.367 11.9988C102.766 11.9988 102.278 12.1933 101.904 12.5822C101.536 12.9711 101.319 13.5409 101.254 14.2917H105.351C105.346 13.8434 105.27 13.4464 105.123 13.1007C104.983 12.755 104.766 12.485 104.473 12.2905C104.186 12.0961 103.817 11.9988 103.367 11.9988Z" fill="#161616"/>
<path d="M116.732 19.6956L115.594 15.5231C115.54 15.3179 115.475 15.0694 115.399 14.7778C115.323 14.4861 115.247 14.1863 115.172 13.8785C115.096 13.5652 115.025 13.2762 114.96 13.0116C114.901 12.7469 114.855 12.5417 114.822 12.3958H114.757C114.73 12.5417 114.687 12.7469 114.627 13.0116C114.567 13.2762 114.5 13.5652 114.424 13.8785C114.348 14.1917 114.272 14.4969 114.196 14.794C114.126 15.091 114.061 15.3449 114.001 15.5556L112.806 19.6956H110.708L108.188 10.7269H110.123L111.294 15.1829C111.37 15.4853 111.443 15.8121 111.513 16.1632C111.589 16.5143 111.654 16.8492 111.708 17.1678C111.763 17.4865 111.803 17.7485 111.83 17.9537H111.895C111.917 17.8079 111.947 17.6242 111.985 17.4028C112.023 17.1759 112.066 16.941 112.115 16.6979C112.164 16.4495 112.212 16.2172 112.261 16.0012C112.31 15.7797 112.356 15.6015 112.399 15.4664L113.781 10.7269H115.871L117.196 15.4664C117.255 15.6717 117.321 15.9309 117.391 16.2442C117.461 16.5521 117.524 16.8627 117.578 17.1759C117.638 17.4838 117.676 17.7404 117.692 17.9456H117.757C117.778 17.762 117.816 17.5135 117.871 17.2002C117.93 16.8816 117.998 16.544 118.074 16.1875C118.15 15.8256 118.228 15.4907 118.31 15.1829L119.505 10.7269H121.407L118.871 19.6956H116.732Z" fill="#161616"/>
<path d="M129 17.1435C129 17.7323 128.856 18.2292 128.569 18.6343C128.282 19.0394 127.862 19.3472 127.309 19.5579C126.762 19.7631 126.09 19.8657 125.293 19.8657C124.664 19.8657 124.122 19.8198 123.667 19.728C123.217 19.6416 122.792 19.5066 122.391 19.3229V17.6782C122.819 17.8781 123.298 18.0509 123.83 18.1968C124.366 18.3426 124.873 18.4155 125.35 18.4155C125.979 18.4155 126.431 18.3183 126.707 18.1238C126.984 17.924 127.122 17.6593 127.122 17.3299C127.122 17.1354 127.065 16.9626 126.951 16.8113C126.843 16.6547 126.637 16.4954 126.334 16.3333C126.035 16.1659 125.596 15.966 125.017 15.7338C124.447 15.5069 123.968 15.2801 123.578 15.0532C123.187 14.8264 122.892 14.5536 122.691 14.235C122.491 13.9109 122.391 13.4977 122.391 12.9954C122.391 12.2014 122.705 11.5992 123.334 11.1887C123.968 10.7728 124.805 10.5648 125.846 10.5648C126.399 10.5648 126.919 10.6215 127.407 10.735C127.9 10.843 128.382 11.0023 128.854 11.213L128.252 12.647C127.846 12.4688 127.436 12.3229 127.025 12.2095C126.618 12.0907 126.203 12.0312 125.781 12.0312C125.287 12.0312 124.911 12.1069 124.651 12.2581C124.396 12.4093 124.269 12.6254 124.269 12.9062C124.269 13.1169 124.331 13.2951 124.456 13.441C124.58 13.5868 124.794 13.7326 125.098 13.8785C125.407 14.0243 125.835 14.2052 126.382 14.4213C126.919 14.6265 127.382 14.8426 127.772 15.0694C128.168 15.2909 128.472 15.5637 128.683 15.8877C128.894 16.2118 129 16.6304 129 17.1435Z" fill="#161616"/>
</svg>
